<?xml version="1.0" encoding="UTF-8"?>
<svg id="Layer_2" data-name="Layer 2" xmlns="http://www.w3.org/2000/svg" viewBox="0 0 56.69 56.69">
  <defs>
    <style>
      .cls-1 {
        fill: none;
      }

      .cls-2 {
        fill: #010101;
      }
    </style>
  </defs>
  <g id="Warstwa_1" data-name="Warstwa 1">
    <g>
      <rect class="cls-2" x="18.14" width="2.27" height="2.27"/>
      <rect class="cls-2" x="36.28" width="2.27" height="2.27"/>
      <rect class="cls-2" x="18.14" y="2.27" width="2.27" height="2.27"/>
      <rect class="cls-2" x="20.41" y="2.27" width="2.27" height="2.27"/>
      <rect class="cls-2" x="22.68" y="2.27" width="2.27" height="2.27"/>
      <rect class="cls-2" x="31.75" y="2.27" width="2.27" height="2.27"/>
      <rect class="cls-2" x="36.28" y="2.27" width="2.27" height="2.27"/>
      <rect class="cls-2" x="20.41" y="4.54" width="2.27" height="2.27"/>
      <rect class="cls-2" x="24.94" y="4.54" width="2.27" height="2.27"/>
      <rect class="cls-2" x="29.48" y="4.54" width="2.27" height="2.27"/>
      <rect class="cls-2" x="31.75" y="4.54" width="2.27" height="2.27"/>
      <rect class="cls-2" x="34.02" y="4.54" width="2.27" height="2.27"/>
      <rect class="cls-2" x="18.14" y="6.8" width="2.27" height="2.27"/>
      <rect class="cls-2" x="20.41" y="6.8" width="2.27" height="2.27"/>
      <rect class="cls-2" x="22.68" y="6.8" width="2.27" height="2.27"/>
      <rect class="cls-2" x="24.94" y="6.8" width="2.27" height="2.27"/>
      <rect class="cls-2" x="27.21" y="6.8" width="2.27" height="2.27"/>
      <rect class="cls-2" x="29.48" y="6.8" width="2.27" height="2.27"/>
      <rect class="cls-2" x="31.75" y="6.8" width="2.27" height="2.27"/>
      <rect class="cls-2" x="20.41" y="9.07" width="2.27" height="2.27"/>
      <rect class="cls-2" x="27.21" y="9.07" width="2.27" height="2.27"/>
      <rect class="cls-2" x="34.02" y="9.07" width="2.27" height="2.27"/>
      <rect class="cls-2" x="24.94" y="11.34" width="2.27" height="2.27"/>
      <rect class="cls-2" x="27.21" y="11.34" width="2.27" height="2.27"/>
      <rect class="cls-2" x="29.48" y="11.34" width="2.27" height="2.27"/>
      <rect class="cls-2" x="36.28" y="11.34" width="2.27" height="2.27"/>
      <rect class="cls-2" x="18.14" y="13.61" width="2.27" height="2.27"/>
      <rect class="cls-2" x="22.68" y="13.61" width="2.27" height="2.27"/>
      <rect class="cls-2" x="27.21" y="13.61" width="2.27" height="2.27"/>
      <rect class="cls-2" x="31.75" y="13.61" width="2.27" height="2.27"/>
      <rect class="cls-2" x="36.28" y="13.61" width="2.27" height="2.27"/>
      <rect class="cls-2" x="18.14" y="15.87" width="2.27" height="2.27"/>
      <rect class="cls-2" x="20.41" y="15.87" width="2.27" height="2.27"/>
      <rect class="cls-2" x="27.21" y="15.87" width="2.27" height="2.27"/>
      <rect class="cls-2" x="31.75" y="15.87" width="2.27" height="2.27"/>
      <rect class="cls-2" x="36.28" y="15.87" width="2.27" height="2.27"/>
      <rect class="cls-2" x="0" y="18.14" width="2.27" height="2.27"/>
      <rect class="cls-2" x="4.54" y="18.14" width="2.27" height="2.27"/>
      <rect class="cls-2" x="6.8" y="18.14" width="2.27" height="2.27"/>
      <rect class="cls-2" x="11.34" y="18.14" width="2.27" height="2.27"/>
      <rect class="cls-2" x="13.61" y="18.14" width="2.27" height="2.27"/>
      <rect class="cls-2" x="15.87" y="18.14" width="2.27" height="2.27"/>
      <rect class="cls-2" x="22.68" y="18.14" width="2.27" height="2.27"/>
      <rect class="cls-2" x="27.21" y="18.14" width="2.27" height="2.27"/>
      <rect class="cls-2" x="31.75" y="18.14" width="2.27" height="2.27"/>
      <rect class="cls-2" x="34.02" y="18.14" width="2.27" height="2.27"/>
      <rect class="cls-2" x="36.28" y="18.14" width="2.27" height="2.27"/>
      <rect class="cls-2" x="40.82" y="18.14" width="2.27" height="2.27"/>
      <rect class="cls-2" x="47.62" y="18.14" width="2.27" height="2.27"/>
      <rect class="cls-2" x="52.16" y="18.14" width="2.27" height="2.27"/>
      <rect class="cls-2" x="54.43" y="18.14" width="2.27" height="2.27"/>
      <rect class="cls-2" x="2.27" y="20.41" width="2.27" height="2.27"/>
      <rect class="cls-2" x="6.8" y="20.41" width="2.27" height="2.27"/>
      <rect class="cls-2" x="9.07" y="20.41" width="2.27" height="2.27"/>
      <rect class="cls-2" x="11.34" y="20.41" width="2.27" height="2.27"/>
      <rect class="cls-2" x="15.87" y="20.41" width="2.27" height="2.27"/>
      <rect class="cls-2" x="18.14" y="20.41" width="2.27" height="2.27"/>
      <rect class="cls-2" x="24.94" y="20.41" width="2.27" height="2.27"/>
      <rect class="cls-2" x="31.75" y="20.41" width="2.27" height="2.27"/>
      <rect class="cls-2" x="36.28" y="20.41" width="2.27" height="2.27"/>
      <rect class="cls-2" x="43.09" y="20.41" width="2.27" height="2.27"/>
      <rect class="cls-2" x="52.16" y="20.41" width="2.27" height="2.27"/>
      <rect class="cls-2" x="4.54" y="22.68" width="2.27" height="2.27"/>
      <rect class="cls-2" x="9.07" y="22.68" width="2.27" height="2.27"/>
      <rect class="cls-2" x="13.61" y="22.68" width="2.27" height="2.27"/>
      <rect class="cls-2" x="15.87" y="22.68" width="2.27" height="2.27"/>
      <rect class="cls-2" x="20.41" y="22.68" width="2.27" height="2.27"/>
      <rect class="cls-2" x="22.68" y="22.68" width="2.27" height="2.27"/>
      <rect class="cls-2" x="24.94" y="22.68" width="2.27" height="2.27"/>
      <rect class="cls-2" x="27.21" y="22.68" width="2.27" height="2.27"/>
      <rect class="cls-2" x="31.75" y="22.68" width="2.27" height="2.27"/>
      <rect class="cls-2" x="40.82" y="22.68" width="2.27" height="2.27"/>
      <rect class="cls-2" x="45.35" y="22.68" width="2.27" height="2.27"/>
      <rect class="cls-2" x="4.54" y="24.94" width="2.27" height="2.27"/>
      <rect class="cls-2" x="6.8" y="24.94" width="2.27" height="2.27"/>
      <rect class="cls-2" x="18.14" y="24.94" width="2.27" height="2.27"/>
      <rect class="cls-2" x="20.41" y="24.94" width="2.27" height="2.27"/>
      <rect class="cls-2" x="29.48" y="24.94" width="2.27" height="2.27"/>
      <rect class="cls-2" x="36.28" y="24.94" width="2.27" height="2.27"/>
      <rect class="cls-2" x="38.55" y="24.94" width="2.27" height="2.27"/>
      <rect class="cls-2" x="40.82" y="24.94" width="2.27" height="2.27"/>
      <rect class="cls-2" x="45.35" y="24.94" width="2.27" height="2.27"/>
      <rect class="cls-2" x="47.62" y="24.94" width="2.27" height="2.27"/>
      <rect class="cls-2" x="49.89" y="24.94" width="2.27" height="2.27"/>
      <rect class="cls-2" x="0" y="27.21" width="2.27" height="2.27"/>
      <rect class="cls-2" x="2.27" y="27.21" width="2.27" height="2.27"/>
      <rect class="cls-2" x="4.54" y="27.21" width="2.27" height="2.27"/>
      <rect class="cls-2" x="13.61" y="27.21" width="2.27" height="2.27"/>
      <rect class="cls-2" x="18.14" y="27.21" width="2.27" height="2.27"/>
      <rect class="cls-2" x="20.41" y="27.21" width="2.27" height="2.27"/>
      <rect class="cls-2" x="27.21" y="27.21" width="2.27" height="2.27"/>
      <rect class="cls-2" x="29.48" y="27.21" width="2.27" height="2.27"/>
      <rect class="cls-2" x="34.02" y="27.21" width="2.27" height="2.27"/>
      <rect class="cls-2" x="36.28" y="27.21" width="2.27" height="2.27"/>
      <rect class="cls-2" x="38.55" y="27.21" width="2.27" height="2.27"/>
      <rect class="cls-2" x="40.82" y="27.21" width="2.27" height="2.27"/>
      <rect class="cls-2" x="45.35" y="27.21" width="2.27" height="2.27"/>
      <rect class="cls-2" x="49.89" y="27.21" width="2.27" height="2.27"/>
      <rect class="cls-2" x="52.16" y="27.21" width="2.27" height="2.27"/>
      <rect class="cls-2" x="54.43" y="27.21" width="2.27" height="2.27"/>
      <rect class="cls-2" x="2.27" y="29.48" width="2.27" height="2.27"/>
      <rect class="cls-2" x="18.14" y="29.48" width="2.27" height="2.27"/>
      <rect class="cls-2" x="20.41" y="29.48" width="2.27" height="2.27"/>
      <rect class="cls-2" x="24.94" y="29.48" width="2.27" height="2.27"/>
      <rect class="cls-2" x="29.48" y="29.48" width="2.27" height="2.27"/>
      <rect class="cls-2" x="31.75" y="29.48" width="2.27" height="2.27"/>
      <rect class="cls-2" x="34.02" y="29.48" width="2.27" height="2.27"/>
      <rect class="cls-2" x="36.28" y="29.48" width="2.27" height="2.27"/>
      <rect class="cls-2" x="38.55" y="29.48" width="2.27" height="2.27"/>
      <rect class="cls-2" x="40.82" y="29.48" width="2.27" height="2.27"/>
      <rect class="cls-2" x="43.09" y="29.48" width="2.27" height="2.27"/>
      <rect class="cls-2" x="45.35" y="29.48" width="2.27" height="2.27"/>
      <rect class="cls-2" x="54.43" y="29.48" width="2.27" height="2.27"/>
      <rect class="cls-2" x="2.27" y="31.75" width="2.27" height="2.27"/>
      <rect class="cls-2" x="6.8" y="31.75" width="2.27" height="2.27"/>
      <rect class="cls-2" x="13.61" y="31.75" width="2.27" height="2.27"/>
      <rect class="cls-2" x="15.87" y="31.75" width="2.27" height="2.27"/>
      <rect class="cls-2" x="18.14" y="31.75" width="2.27" height="2.27"/>
      <rect class="cls-2" x="20.41" y="31.75" width="2.27" height="2.27"/>
      <rect class="cls-2" x="29.48" y="31.75" width="2.27" height="2.27"/>
      <rect class="cls-2" x="31.75" y="31.75" width="2.27" height="2.27"/>
      <rect class="cls-2" x="36.28" y="31.75" width="2.27" height="2.27"/>
      <rect class="cls-2" x="45.35" y="31.75" width="2.27" height="2.27"/>
      <rect class="cls-2" x="49.89" y="31.75" width="2.27" height="2.27"/>
      <rect class="cls-2" x="52.16" y="31.75" width="2.27" height="2.27"/>
      <rect class="cls-2" x="0" y="34.02" width="2.27" height="2.27"/>
      <rect class="cls-2" x="6.8" y="34.02" width="2.27" height="2.27"/>
      <rect class="cls-2" x="9.07" y="34.02" width="2.27" height="2.27"/>
      <rect class="cls-2" x="11.34" y="34.02" width="2.27" height="2.27"/>
      <rect class="cls-2" x="15.87" y="34.02" width="2.27" height="2.27"/>
      <rect class="cls-2" x="18.14" y="34.02" width="2.27" height="2.27"/>
      <rect class="cls-2" x="24.94" y="34.02" width="2.27" height="2.27"/>
      <rect class="cls-2" x="31.75" y="34.02" width="2.27" height="2.27"/>
      <rect class="cls-2" x="36.28" y="34.02" width="2.27" height="2.27"/>
      <rect class="cls-2" x="38.55" y="34.02" width="2.27" height="2.27"/>
      <rect class="cls-2" x="43.09" y="34.02" width="2.27" height="2.27"/>
      <rect class="cls-2" x="45.35" y="34.02" width="2.27" height="2.27"/>
      <rect class="cls-2" x="54.43" y="34.02" width="2.27" height="2.27"/>
      <rect class="cls-2" x="4.54" y="36.28" width="2.27" height="2.27"/>
      <rect class="cls-2" x="11.34" y="36.28" width="2.27" height="2.27"/>
      <rect class="cls-2" x="13.61" y="36.28" width="2.27" height="2.27"/>
      <rect class="cls-2" x="24.94" y="36.28" width="2.27" height="2.27"/>
      <rect class="cls-2" x="27.21" y="36.28" width="2.27" height="2.27"/>
      <rect class="cls-2" x="29.48" y="36.28" width="2.27" height="2.27"/>
      <rect class="cls-2" x="34.02" y="36.28" width="2.27" height="2.27"/>
      <rect class="cls-2" x="36.28" y="36.28" width="2.27" height="2.27"/>
      <rect class="cls-2" x="38.55" y="36.28" width="2.27" height="2.27"/>
      <rect class="cls-2" x="40.82" y="36.28" width="2.27" height="2.27"/>
      <rect class="cls-2" x="43.09" y="36.28" width="2.27" height="2.27"/>
      <rect class="cls-2" x="45.35" y="36.28" width="2.27" height="2.27"/>
      <rect class="cls-2" x="47.62" y="36.28" width="2.27" height="2.27"/>
      <rect class="cls-2" x="49.89" y="36.28" width="2.27" height="2.27"/>
      <rect class="cls-2" x="52.16" y="36.28" width="2.27" height="2.27"/>
      <rect class="cls-2" x="54.43" y="36.28" width="2.27" height="2.27"/>
      <rect class="cls-2" x="18.14" y="38.55" width="2.27" height="2.27"/>
      <rect class="cls-2" x="20.41" y="38.55" width="2.27" height="2.27"/>
      <rect class="cls-2" x="22.68" y="38.55" width="2.27" height="2.27"/>
      <rect class="cls-2" x="24.94" y="38.55" width="2.27" height="2.27"/>
      <rect class="cls-2" x="29.48" y="38.55" width="2.27" height="2.27"/>
      <rect class="cls-2" x="36.28" y="38.55" width="2.27" height="2.27"/>
      <rect class="cls-2" x="45.35" y="38.55" width="2.27" height="2.27"/>
      <rect class="cls-2" x="49.89" y="38.55" width="2.27" height="2.27"/>
      <rect class="cls-2" x="54.43" y="38.55" width="2.27" height="2.27"/>
      <rect class="cls-2" x="18.14" y="40.82" width="2.27" height="2.27"/>
      <rect class="cls-2" x="29.48" y="40.82" width="2.27" height="2.27"/>
      <rect class="cls-2" x="31.75" y="40.82" width="2.27" height="2.27"/>
      <rect class="cls-2" x="36.28" y="40.82" width="2.27" height="2.27"/>
      <rect class="cls-2" x="40.82" y="40.82" width="2.27" height="2.27"/>
      <rect class="cls-2" x="45.35" y="40.82" width="2.27" height="2.27"/>
      <rect class="cls-2" x="49.89" y="40.82" width="2.27" height="2.27"/>
      <rect class="cls-2" x="52.16" y="40.82" width="2.27" height="2.27"/>
      <rect class="cls-2" x="54.43" y="40.82" width="2.27" height="2.27"/>
      <rect class="cls-2" x="18.14" y="43.09" width="2.27" height="2.27"/>
      <rect class="cls-2" x="20.41" y="43.09" width="2.27" height="2.27"/>
      <rect class="cls-2" x="22.68" y="43.09" width="2.27" height="2.27"/>
      <rect class="cls-2" x="24.94" y="43.09" width="2.27" height="2.27"/>
      <rect class="cls-2" x="36.28" y="43.09" width="2.27" height="2.27"/>
      <rect class="cls-2" x="45.35" y="43.09" width="2.27" height="2.27"/>
      <rect class="cls-2" x="52.16" y="43.09" width="2.27" height="2.27"/>
      <rect class="cls-2" x="54.43" y="43.09" width="2.27" height="2.27"/>
      <rect class="cls-2" x="27.21" y="45.35" width="2.27" height="2.27"/>
      <rect class="cls-2" x="31.75" y="45.35" width="2.27" height="2.27"/>
      <rect class="cls-2" x="36.28" y="45.35" width="2.27" height="2.27"/>
      <rect class="cls-2" x="38.55" y="45.35" width="2.27" height="2.27"/>
      <rect class="cls-2" x="40.82" y="45.35" width="2.27" height="2.27"/>
      <rect class="cls-2" x="43.09" y="45.35" width="2.27" height="2.27"/>
      <rect class="cls-2" x="45.35" y="45.35" width="2.27" height="2.27"/>
      <rect class="cls-2" x="47.62" y="45.35" width="2.27" height="2.27"/>
      <rect class="cls-2" x="54.43" y="45.35" width="2.27" height="2.27"/>
      <rect class="cls-2" x="18.14" y="47.62" width="2.27" height="2.27"/>
      <rect class="cls-2" x="22.68" y="47.62" width="2.27" height="2.27"/>
      <rect class="cls-2" x="24.94" y="47.62" width="2.27" height="2.27"/>
      <rect class="cls-2" x="27.21" y="47.62" width="2.27" height="2.27"/>
      <rect class="cls-2" x="29.48" y="47.62" width="2.27" height="2.27"/>
      <rect class="cls-2" x="34.02" y="47.62" width="2.27" height="2.27"/>
      <rect class="cls-2" x="36.28" y="47.62" width="2.27" height="2.27"/>
      <rect class="cls-2" x="38.55" y="47.62" width="2.27" height="2.27"/>
      <rect class="cls-2" x="40.82" y="47.62" width="2.27" height="2.27"/>
      <rect class="cls-2" x="45.35" y="47.62" width="2.27" height="2.27"/>
      <rect class="cls-2" x="47.62" y="47.62" width="2.27" height="2.27"/>
      <rect class="cls-2" x="49.89" y="47.62" width="2.27" height="2.27"/>
      <rect class="cls-2" x="52.16" y="47.62" width="2.27" height="2.27"/>
      <rect class="cls-2" x="54.43" y="47.62" width="2.27" height="2.27"/>
      <rect class="cls-2" x="18.14" y="49.89" width="2.27" height="2.27"/>
      <rect class="cls-2" x="20.41" y="49.89" width="2.27" height="2.27"/>
      <rect class="cls-2" x="22.68" y="49.89" width="2.27" height="2.27"/>
      <rect class="cls-2" x="24.94" y="49.89" width="2.27" height="2.27"/>
      <rect class="cls-2" x="29.48" y="49.89" width="2.27" height="2.27"/>
      <rect class="cls-2" x="31.75" y="49.89" width="2.27" height="2.27"/>
      <rect class="cls-2" x="34.02" y="49.89" width="2.27" height="2.27"/>
      <rect class="cls-2" x="36.28" y="49.89" width="2.27" height="2.27"/>
      <rect class="cls-2" x="38.55" y="49.89" width="2.27" height="2.27"/>
      <rect class="cls-2" x="40.82" y="49.89" width="2.27" height="2.27"/>
      <rect class="cls-2" x="45.35" y="49.89" width="2.27" height="2.27"/>
      <rect class="cls-2" x="49.89" y="49.89" width="2.27" height="2.27"/>
      <rect class="cls-2" x="52.16" y="49.89" width="2.27" height="2.27"/>
      <rect class="cls-2" x="27.21" y="52.16" width="2.27" height="2.27"/>
      <rect class="cls-2" x="29.48" y="52.16" width="2.27" height="2.27"/>
      <rect class="cls-2" x="38.55" y="52.16" width="2.27" height="2.27"/>
      <rect class="cls-2" x="40.82" y="52.16" width="2.27" height="2.27"/>
      <rect class="cls-2" x="45.35" y="52.16" width="2.27" height="2.27"/>
      <rect class="cls-2" x="49.89" y="52.16" width="2.27" height="2.27"/>
      <rect class="cls-2" x="18.14" y="54.43" width="2.27" height="2.27"/>
      <rect class="cls-2" x="20.41" y="54.43" width="2.27" height="2.27"/>
      <rect class="cls-2" x="22.68" y="54.43" width="2.27" height="2.27"/>
      <rect class="cls-2" x="27.21" y="54.43" width="2.27" height="2.27"/>
      <rect class="cls-2" x="29.48" y="54.43" width="2.27" height="2.27"/>
      <rect class="cls-2" x="31.75" y="54.43" width="2.27" height="2.27"/>
      <rect class="cls-2" x="38.55" y="54.43" width="2.27" height="2.27"/>
      <rect class="cls-2" x="43.09" y="54.43" width="2.27" height="2.27"/>
      <rect class="cls-2" x="45.35" y="54.43" width="2.27" height="2.27"/>
      <rect class="cls-2" x="47.62" y="54.43" width="2.27" height="2.27"/>
      <rect class="cls-2" x="49.89" y="54.43" width="2.27" height="2.27"/>
      <rect class="cls-2" x="52.16" y="54.43" width="2.27" height="2.27"/>
      <rect class="cls-2" x="54.43" y="54.43" width="2.27" height="2.27"/>
      <g>
        <path class="cls-1" d="M2.38,10.51v-5.15c0-1.64,1.36-2.98,3.04-2.98h5.04c1.68,0,3.04,1.34,3.04,2.98v8.13H5.42c-1.68,0-3.04-1.34-3.04-2.98Z"/>
        <path class="cls-2" d="M0,10.51v-5.15C0,2.4,2.43,0,5.42,0h5.04c2.99,0,5.42,2.4,5.42,5.36v10.52H5.42C2.43,15.87,0,13.47,0,10.51ZM2.38,10.51c0,1.64,1.36,2.98,3.04,2.98h8.07s0-8.13,0-8.13c0-1.64-1.36-2.98-3.04-2.98h-5.04c-1.68,0-3.04,1.34-3.04,2.98v5.15Z"/>
      </g>
      <g>
        <path class="cls-1" d="M54.31,10.51v-5.15c0-1.64-1.36-2.98-3.04-2.98h-5.04c-1.68,0-3.04,1.34-3.04,2.98v8.13h8.07c1.68,0,3.04-1.34,3.04-2.98Z"/>
        <path class="cls-2" d="M56.69,10.51v-5.15c0-2.95-2.43-5.36-5.42-5.36h-5.04c-2.99,0-5.42,2.4-5.42,5.36v10.52h10.45c2.99,0,5.42-2.41,5.42-5.36ZM54.31,10.51c0,1.64-1.36,2.98-3.04,2.98h-8.07s0-8.13,0-8.13c0-1.64,1.36-2.98,3.04-2.98h5.04c1.68,0,3.04,1.34,3.04,2.98v5.15Z"/>
      </g>
      <g>
        <path class="cls-1" d="M2.38,46.18v5.15c0,1.64,1.36,2.98,3.04,2.98h5.04c1.68,0,3.04-1.34,3.04-2.98v-8.13H5.42c-1.68,0-3.04,1.34-3.04,2.98Z"/>
        <path class="cls-2" d="M0,46.18v5.15C0,54.29,2.43,56.69,5.42,56.69h5.04c2.99,0,5.42-2.4,5.42-5.36v-10.52H5.42C2.43,40.82,0,43.23,0,46.18ZM2.38,46.18c0-1.64,1.36-2.98,3.04-2.98h8.07s0,8.13,0,8.13c0,1.64-1.36,2.98-3.04,2.98h-5.04c-1.68,0-3.04-1.34-3.04-2.98v-5.15Z"/>
      </g>
      <rect class="cls-2" x="4.54" y="4.54" width="6.8" height="6.8"/>
      <rect class="cls-2" x="45.35" y="4.54" width="6.8" height="6.8"/>
      <rect class="cls-2" x="4.54" y="45.35" width="6.8" height="6.8"/>
    </g>
  </g>
</svg>