<?xml version="1.0" encoding="UTF-8"?>
<svg id="Layer_2" data-name="Layer 2" xmlns="http://www.w3.org/2000/svg" viewBox="0 0 186.29 700.3">
  <defs>
    <style>
      .cls-1 {
        fill: #0f0f0f;
      }

      .cls-2 {
        fill: #262626;
      }

      .cls-3 {
        fill: #040404;
      }

      .cls-4 {
        fill: #111;
      }

      .cls-5 {
        fill: #c4c4c4;
      }

      .cls-6 {
        fill: #d4d4d4;
      }

      .cls-7 {
        fill: #252525;
      }

      .cls-8 {
        fill: #f9f9f9;
      }

      .cls-9 {
        fill: #fafafa;
      }

      .cls-10 {
        fill: #5e5e5e;
      }

      .cls-11 {
        fill: #f8f8f8;
      }

      .cls-12 {
        fill: #f0f0f0;
      }

      .cls-13 {
        fill: #191919;
      }

      .cls-14 {
        fill: #eee;
      }

      .cls-15 {
        fill: #fbfbfb;
      }

      .cls-16 {
        fill: #fdfdfd;
      }

      .cls-17 {
        fill: #b2b2b2;
      }

      .cls-18 {
        fill: #0e0e0e;
      }

      .cls-19 {
        fill: #343434;
      }

      .cls-20 {
        fill: #090909;
      }
    </style>
  </defs>
  <g id="Layer_1-2" data-name="Layer 1">
    <g>
      <path class="cls-7" d="M27.64,17.21c24.05,11.67,46.8,25.97,63.61,47.61C70.93,44.53,48.4,27,21.1,16.54c2.36-1.2,3.95-.08,6.54.68Z"/>
      <path class="cls-2" d="M59.59,666.26c-10.71,6.42-20.89,13.11-34.13,15.56,20.68-8.82,40.65-19.89,58.11-35.35.59-.52.86-1.46,1.2-1.41.74.11,1.46.97,1.61,1.54.28,1.08-1.55,1.06-1.99,1.4l-24.8,18.27Z"/>
      <path class="cls-6" d="M15.45,29.04c.77.87.05,1.49-2.17,1.86-4.19-1.64-8.75-2.33-13.29-5.53,5.51-.27,10.65,1.83,15.45,3.66Z"/>
      <path class="cls-10" d="M15.45,29.04l7.1,2.71c-.32.11-1.84.13-2.26.66-.28.36.71,1.14.81,1.55l-7.82-3.05c-.82-.52-.96-1.91-.4-1.8.62.12,2.22.33,2.57-.07Z"/>
      <path class="cls-10" d="M25.22,695.87c1.04,1.32,2.76,1.25,4.26,1.37l-9.27,2.86c-3.06.71-3.52-.64-.93-2.26l5.94-1.98Z"/>
      <path class="cls-5" d="M18.19,14.83c-3.71.12-6.64-2.07-10.05-3.56,4.01-.32,6.98,1.46,10.15,2.11.09.76-.07,1.4-.1,1.46Z"/>
      <path class="cls-17" d="M21.9,682.52c4.46-1.79,2.63,3.4-7.78,3.12l7.78-3.12Z"/>
      <g>
        <path class="cls-3" d="M29.48,697.24c-3.7.87-5.12.41-4.26-1.37,23.99-7.98,45.95-20.73,65.87-36.99,11.42-9.34,21.53-18.93,30.6-30.91-13.19,1.98-24.29-4.72-27.41-17.85-10.02,16.26-22.31,28.96-37.34,39.52-10.45,7.33-21.44,12.78-32.67,17.7-3.88,1.15-3.26-.65-.19-2.5,12.76-5.96,25.01-12.55,36.41-21.7,13.54-10.88,25.89-23.56,33.28-39.21l5.6-19.1c-23.08-5.83-32.53-27.62-32.54-51.13l-.03-359.71c0-23.58,9.39-45.28,33.1-50.51l-6.67-22.5c-15.75-30.24-41.79-52.95-72.11-67.03-3.93-2.54-2.61-3.09,1.44-2.21,15.32,5.85,28.95,15.13,41.35,26.61,12.16,11.05,21.93,23.39,30.7,37.77,2.63-12.07,14.28-19.37,26.74-17.42-12.56-17.44-27.68-31.92-44.76-45.05C59.11,20.41,40.46,10.23,20.73,1.71c-.73-1.93.09-2.25,1.6-.83,3.36.16,6.59,1.36,10.22,2.99,28.85,12.91,54.53,31.54,76.28,54.42l18.12,21.97c2.48,3.01,6.93,4.13,9.06,8.14,6.99,13.14,12.86,26.41,16.89,40.94l14.08,8.78c3,1.87,3.37,4.98,5.26,6.93,5.93,6.12,11.38,12.19,12.09,20.98l1.96,24.21-.2,342.4c0,10.25-2.66,20.93-9.12,27.83-2.91,3.11-4.77,5.02-7.14,8.17-4.14,5.51-11.87,7.45-17.93,11.3-5.19,13.94-10.78,27.42-17.99,40.61l-7.55,6.38-12.75,15.55c-23.54,24.64-52.37,43.35-84.12,54.75Z"/>
        <path class="cls-16" d="M83.57,508.31l.2-169.18-.14-71.07.05-39.04-.36-39.01c-.04-4.84-.28-9.24-.79-14l-1.87-17.31c-.5-4.66-1.56-8.89-4.63-12.86,4.9-9.96,13.19-16.95,24.41-19.3,2.77,20.68,4.15,39.97,4.15,60.66v331.61c0,21.29-1.42,41.22-4.4,62.73-11.37-2.3-19.74-10.37-24.91-20.59,2.42-3.19,3.95-6.43,4.65-10.34,2.51-13.98,3.61-27.09,3.62-42.3Z"/>
        <path class="cls-8" d="M81.58,508.3c0,14.65-1.25,27.05-3.49,40.45-.56,3.32-1.24,6.49-3.87,8.93-2.98-8.84-4.3-16.7-4.3-25.95l.05-358.46c0-9.1,1.68-16.97,5.16-25.24,4.54,9.74,4.23,19.16,5.38,28.91.43,3.65,1.4,7.22.55,11.09l.58,40.98-.04,48.15v231.13Z"/>
        <path class="cls-11" d="M183.07,528.77c0,11.08-2.58,25.67-10.57,31.36l1.82-44.35V188.22s-1.95-37.8-1.95-37.8c9.93,8.28,10.76,25.51,10.76,39.83l-.06,338.52Z"/>
        <g>
          <path class="cls-16" d="M152.35,575.92c.44-3.22,2.01-5.54,1.57-9.06-2.73,3.52-3.38,7.59-5,11.85-5.2,13.74-10.02,27.6-17.98,40-4.84,7.53-15.06,8.14-22.48,4.8s-13.36-11.43-11.06-20.45c2.63-10.32,6.67-19.92,7.28-30.63l2.76-48.63.02-325.6-1.96-55.21c-.45-12.81-3.62-24.66-7.37-36.74-3.17-10.21,2.72-20.31,12.02-23.75,10.05-3.71,19.89.88,25.07,10.74,7.46,14.21,12.52,29.09,17.44,44.02,1.26-1.08,1.16-1.97,1.12-3.39,5.12,2.87,10.12,5.74,14.68,10.12l3,42.24.07,338.54-2.21,37.16c-.18,3-1.68,5.43-4.27,6.88l-12.7,7.11Z"/>
          <path class="cls-4" d="M138.25,500.97c1.73.17,1.91.68.2,1.35l-1.46,1.68c-8.15-1.45-8.1,15.94-1.66,17.1,4.36.79,17.73,1.49,18.96-3.5,1.09-4.41.6-12.57-3.62-15.11-1.93-.26-1.91-1.04.01-1.45.01-2.87,2.36-2.56,2.86.2,3.04.22,4.86,3.42,4.86,6.73v9.1c0,4.44-3.44,8.08-8.05,8.05l-16.99-.12c-7.77-.05-7.69-18.27-3.78-21.99-1.5-4.02,7.08-5.36,8.68-2.05Z"/>
          <path class="cls-9" d="M153.52,501.24l-2.86-.2c-2.73,1.63-9.38,1.6-12.42-.06-2.75-.01-6.26-.25-8.68,2.05-.39-1.7-1.66-2.86-3.45-4.56l8.18-1.06c7.42.2,14.39.24,21.84-1.67.24,3.25-2.1,3.59-2.61,5.51Z"/>
          <path class="cls-9" d="M138.45,502.32c3.66-.43,8.71-.73,12.21.17,3.34-.53,5.7,2.08,5.69,5.44l-.04,9.13c-.01,3.4-2.49,6.05-5.99,6.05h-15.13c-6.45-.01-7.2-8.83-5.52-16.78.81-3.86,5.48-5.14,8.78-4Z"/>
          <path class="cls-1" d="M150.67,501.04v1.45c-4.08.65-8.31,1.19-12.22-.17l-.2-1.35,12.42.06Z"/>
          <g>
            <circle class="cls-1" cx="116.68" cy="101.2" r="7.82"/>
            <circle class="cls-12" cx="116.67" cy="101.35" r="4.97"/>
          </g>
          <g>
            <circle class="cls-18" cx="116.52" cy="605.55" r="7.65"/>
            <circle class="cls-14" cx="116.6" cy="605.64" r="5.01"/>
          </g>
          <g>
            <path class="cls-20" d="M138.71,426.13c-8.97-.17-15.69-6.42-15.69-15.2l-.02-101.88c0-9.52,7.18-15.79,16.26-15.71,9.03.08,16.15,6.24,16.16,15.7l.07,100.89c0,9.45-6.73,16.38-16.77,16.19Z"/>
            <path class="cls-8" d="M152.3,413.49c0,7.12-8.55,9.97-13.5,9.79s-12.77-3.56-12.77-10.33l.06-106.83c0-6.49,7.9-9.74,12.75-9.96s13.51,3.23,13.5,9.96l-.05,107.37Z"/>
            <g>
              <path class="cls-13" d="M149.28,406.41c.02,7.37-3.41,11.93-9.49,12.09-6.73.18-10.5-4.39-10.49-11.59l.12-93.85c0-3.35.32-6.17,2.13-8.27,3.64-4.21,11.78-4.06,15.43.07,2.06,2.33,2.09,5.6,2.1,9.18l.21,92.36Z"/>
              <path class="cls-15" d="M147.29,360.43l-.15,48.51c-.01,4.46-3.74,6.99-7.46,7.25-3.24.23-8.25-2.06-8.26-6.27l-.13-51.14c.34-.26.67-.45,1-.45,3.86.04,10.68.36,14.41.86.24.03.42.56.58,1.24Z"/>
              <path class="cls-15" d="M147.27,357.99c-.14.67-.29,1.19-.46,1.2-4.63.25-11.59.06-15.59-1.62l.23-47.44c.02-4.78,5.44-6.68,9.12-6.17,4.57.63,6.57,4.12,6.59,9.08l.11,44.95Z"/>
              <path class="cls-19" d="M147.27,357.99l.02,2.44-11.08-.57c-1.95-.03-3.56.07-4.91-1.08l-.07-1.21c1.57-.39,3.15.26,5.12.28l10.93.14Z"/>
            </g>
          </g>
        </g>
      </g>
    </g>
  </g>
</svg>